<?xml version="1.0" encoding="utf-8" standalone="no"?>
<!DOCTYPE svg PUBLIC "-//W3C//DTD SVG 1.1//EN"
  "http://www.w3.org/Graphics/SVG/1.1/DTD/svg11.dtd">
<!-- Created with matplotlib (https://matplotlib.org/) -->
<svg height="310.86825pt" version="1.1" viewBox="0 0 516.556362 310.86825" width="516.556362pt" xmlns="http://www.w3.org/2000/svg" xmlns:xlink="http://www.w3.org/1999/xlink">
 <defs>
  <style type="text/css">
*{stroke-linecap:butt;stroke-linejoin:round;}
  </style>
 </defs>
 <g id="figure_1">
  <g id="patch_1">
   <path d="M 0 310.86825 
L 516.556362 310.86825 
L 516.556362 0 
L 0 0 
z
" style="fill:#ffffff;"/>
  </g>
  <g id="axes_1">
   <g id="patch_2">
    <path d="M 48.982813 273.312 
L 406.102813 273.312 
L 406.102813 7.2 
L 48.982813 7.2 
z
" style="fill:#ffffff;"/>
   </g>
   <g id="matplotlib.axis_1">
    <g id="xtick_1">
     <g id="line2d_1">
      <defs>
       <path d="M 0 0 
L 0 3.5 
" id="mfd31d15173" style="stroke:#000000;stroke-width:0.8;"/>
      </defs>
      <g>
       <use style="stroke:#000000;stroke-width:0.8;" x="65.21554" xlink:href="#mfd31d15173" y="273.312"/>
      </g>
     </g>
     <g id="text_1">
      <!-- 0 -->
      <defs>
       <path d="M 31.78125 66.40625 
Q 24.171875 66.40625 20.328125 58.90625 
Q 16.5 51.421875 16.5 36.375 
Q 16.5 21.390625 20.328125 13.890625 
Q 24.171875 6.390625 31.78125 6.390625 
Q 39.453125 6.390625 43.28125 13.890625 
Q 47.125 21.390625 47.125 36.375 
Q 47.125 51.421875 43.28125 58.90625 
Q 39.453125 66.40625 31.78125 66.40625 
z
M 31.78125 74.21875 
Q 44.046875 74.21875 50.515625 64.515625 
Q 56.984375 54.828125 56.984375 36.375 
Q 56.984375 17.96875 50.515625 8.265625 
Q 44.046875 -1.421875 31.78125 -1.421875 
Q 19.53125 -1.421875 13.0625 8.265625 
Q 6.59375 17.96875 6.59375 36.375 
Q 6.59375 54.828125 13.0625 64.515625 
Q 19.53125 74.21875 31.78125 74.21875 
z
" id="DejaVuSans-48"/>
      </defs>
      <g transform="translate(62.03429 287.910437)scale(0.1 -0.1)">
       <use xlink:href="#DejaVuSans-48"/>
      </g>
     </g>
    </g>
    <g id="xtick_2">
     <g id="line2d_2">
      <g>
       <use style="stroke:#000000;stroke-width:0.8;" x="130.146449" xlink:href="#mfd31d15173" y="273.312"/>
      </g>
     </g>
     <g id="text_2">
      <!-- 200 -->
      <defs>
       <path d="M 19.1875 8.296875 
L 53.609375 8.296875 
L 53.609375 0 
L 7.328125 0 
L 7.328125 8.296875 
Q 12.9375 14.109375 22.625 23.890625 
Q 32.328125 33.6875 34.8125 36.53125 
Q 39.546875 41.84375 41.421875 45.53125 
Q 43.3125 49.21875 43.3125 52.78125 
Q 43.3125 58.59375 39.234375 62.25 
Q 35.15625 65.921875 28.609375 65.921875 
Q 23.96875 65.921875 18.8125 64.3125 
Q 13.671875 62.703125 7.8125 59.421875 
L 7.8125 69.390625 
Q 13.765625 71.78125 18.9375 73 
Q 24.125 74.21875 28.421875 74.21875 
Q 39.75 74.21875 46.484375 68.546875 
Q 53.21875 62.890625 53.21875 53.421875 
Q 53.21875 48.921875 51.53125 44.890625 
Q 49.859375 40.875 45.40625 35.40625 
Q 44.1875 33.984375 37.640625 27.21875 
Q 31.109375 20.453125 19.1875 8.296875 
z
" id="DejaVuSans-50"/>
      </defs>
      <g transform="translate(120.602699 287.910437)scale(0.1 -0.1)">
       <use xlink:href="#DejaVuSans-50"/>
       <use x="63.623047" xlink:href="#DejaVuSans-48"/>
       <use x="127.246094" xlink:href="#DejaVuSans-48"/>
      </g>
     </g>
    </g>
    <g id="xtick_3">
     <g id="line2d_3">
      <g>
       <use style="stroke:#000000;stroke-width:0.8;" x="195.077358" xlink:href="#mfd31d15173" y="273.312"/>
      </g>
     </g>
     <g id="text_3">
      <!-- 400 -->
      <defs>
       <path d="M 37.796875 64.3125 
L 12.890625 25.390625 
L 37.796875 25.390625 
z
M 35.203125 72.90625 
L 47.609375 72.90625 
L 47.609375 25.390625 
L 58.015625 25.390625 
L 58.015625 17.1875 
L 47.609375 17.1875 
L 47.609375 0 
L 37.796875 0 
L 37.796875 17.1875 
L 4.890625 17.1875 
L 4.890625 26.703125 
z
" id="DejaVuSans-52"/>
      </defs>
      <g transform="translate(185.533608 287.910437)scale(0.1 -0.1)">
       <use xlink:href="#DejaVuSans-52"/>
       <use x="63.623047" xlink:href="#DejaVuSans-48"/>
       <use x="127.246094" xlink:href="#DejaVuSans-48"/>
      </g>
     </g>
    </g>
    <g id="xtick_4">
     <g id="line2d_4">
      <g>
       <use style="stroke:#000000;stroke-width:0.8;" x="260.008267" xlink:href="#mfd31d15173" y="273.312"/>
      </g>
     </g>
     <g id="text_4">
      <!-- 600 -->
      <defs>
       <path d="M 33.015625 40.375 
Q 26.375 40.375 22.484375 35.828125 
Q 18.609375 31.296875 18.609375 23.390625 
Q 18.609375 15.53125 22.484375 10.953125 
Q 26.375 6.390625 33.015625 6.390625 
Q 39.65625 6.390625 43.53125 10.953125 
Q 47.40625 15.53125 47.40625 23.390625 
Q 47.40625 31.296875 43.53125 35.828125 
Q 39.65625 40.375 33.015625 40.375 
z
M 52.59375 71.296875 
L 52.59375 62.3125 
Q 48.875 64.0625 45.09375 64.984375 
Q 41.3125 65.921875 37.59375 65.921875 
Q 27.828125 65.921875 22.671875 59.328125 
Q 17.53125 52.734375 16.796875 39.40625 
Q 19.671875 43.65625 24.015625 45.921875 
Q 28.375 48.1875 33.59375 48.1875 
Q 44.578125 48.1875 50.953125 41.515625 
Q 57.328125 34.859375 57.328125 23.390625 
Q 57.328125 12.15625 50.6875 5.359375 
Q 44.046875 -1.421875 33.015625 -1.421875 
Q 20.359375 -1.421875 13.671875 8.265625 
Q 6.984375 17.96875 6.984375 36.375 
Q 6.984375 53.65625 15.1875 63.9375 
Q 23.390625 74.21875 37.203125 74.21875 
Q 40.921875 74.21875 44.703125 73.484375 
Q 48.484375 72.75 52.59375 71.296875 
z
" id="DejaVuSans-54"/>
      </defs>
      <g transform="translate(250.464517 287.910437)scale(0.1 -0.1)">
       <use xlink:href="#DejaVuSans-54"/>
       <use x="63.623047" xlink:href="#DejaVuSans-48"/>
       <use x="127.246094" xlink:href="#DejaVuSans-48"/>
      </g>
     </g>
    </g>
    <g id="xtick_5">
     <g id="line2d_5">
      <g>
       <use style="stroke:#000000;stroke-width:0.8;" x="324.939176" xlink:href="#mfd31d15173" y="273.312"/>
      </g>
     </g>
     <g id="text_5">
      <!-- 800 -->
      <defs>
       <path d="M 31.78125 34.625 
Q 24.75 34.625 20.71875 30.859375 
Q 16.703125 27.09375 16.703125 20.515625 
Q 16.703125 13.921875 20.71875 10.15625 
Q 24.75 6.390625 31.78125 6.390625 
Q 38.8125 6.390625 42.859375 10.171875 
Q 46.921875 13.96875 46.921875 20.515625 
Q 46.921875 27.09375 42.890625 30.859375 
Q 38.875 34.625 31.78125 34.625 
z
M 21.921875 38.8125 
Q 15.578125 40.375 12.03125 44.71875 
Q 8.5 49.078125 8.5 55.328125 
Q 8.5 64.0625 14.71875 69.140625 
Q 20.953125 74.21875 31.78125 74.21875 
Q 42.671875 74.21875 48.875 69.140625 
Q 55.078125 64.0625 55.078125 55.328125 
Q 55.078125 49.078125 51.53125 44.71875 
Q 48 40.375 41.703125 38.8125 
Q 48.828125 37.15625 52.796875 32.3125 
Q 56.78125 27.484375 56.78125 20.515625 
Q 56.78125 9.90625 50.3125 4.234375 
Q 43.84375 -1.421875 31.78125 -1.421875 
Q 19.734375 -1.421875 13.25 4.234375 
Q 6.78125 9.90625 6.78125 20.515625 
Q 6.78125 27.484375 10.78125 32.3125 
Q 14.796875 37.15625 21.921875 38.8125 
z
M 18.3125 54.390625 
Q 18.3125 48.734375 21.84375 45.5625 
Q 25.390625 42.390625 31.78125 42.390625 
Q 38.140625 42.390625 41.71875 45.5625 
Q 45.3125 48.734375 45.3125 54.390625 
Q 45.3125 60.0625 41.71875 63.234375 
Q 38.140625 66.40625 31.78125 66.40625 
Q 25.390625 66.40625 21.84375 63.234375 
Q 18.3125 60.0625 18.3125 54.390625 
z
" id="DejaVuSans-56"/>
      </defs>
      <g transform="translate(315.395426 287.910437)scale(0.1 -0.1)">
       <use xlink:href="#DejaVuSans-56"/>
       <use x="63.623047" xlink:href="#DejaVuSans-48"/>
       <use x="127.246094" xlink:href="#DejaVuSans-48"/>
      </g>
     </g>
    </g>
    <g id="xtick_6">
     <g id="line2d_6">
      <g>
       <use style="stroke:#000000;stroke-width:0.8;" x="389.870085" xlink:href="#mfd31d15173" y="273.312"/>
      </g>
     </g>
     <g id="text_6">
      <!-- 1000 -->
      <defs>
       <path d="M 12.40625 8.296875 
L 28.515625 8.296875 
L 28.515625 63.921875 
L 10.984375 60.40625 
L 10.984375 69.390625 
L 28.421875 72.90625 
L 38.28125 72.90625 
L 38.28125 8.296875 
L 54.390625 8.296875 
L 54.390625 0 
L 12.40625 0 
z
" id="DejaVuSans-49"/>
      </defs>
      <g transform="translate(377.145085 287.910437)scale(0.1 -0.1)">
       <use xlink:href="#DejaVuSans-49"/>
       <use x="63.623047" xlink:href="#DejaVuSans-48"/>
       <use x="127.246094" xlink:href="#DejaVuSans-48"/>
       <use x="190.869141" xlink:href="#DejaVuSans-48"/>
      </g>
     </g>
    </g>
    <g id="text_7">
     <!-- Generation -->
     <defs>
      <path d="M 59.515625 10.40625 
L 59.515625 29.984375 
L 43.40625 29.984375 
L 43.40625 38.09375 
L 69.28125 38.09375 
L 69.28125 6.78125 
Q 63.578125 2.734375 56.6875 0.65625 
Q 49.8125 -1.421875 42 -1.421875 
Q 24.90625 -1.421875 15.25 8.5625 
Q 5.609375 18.5625 5.609375 36.375 
Q 5.609375 54.25 15.25 64.234375 
Q 24.90625 74.21875 42 74.21875 
Q 49.125 74.21875 55.546875 72.453125 
Q 61.96875 70.703125 67.390625 67.28125 
L 67.390625 56.78125 
Q 61.921875 61.421875 55.765625 63.765625 
Q 49.609375 66.109375 42.828125 66.109375 
Q 29.4375 66.109375 22.71875 58.640625 
Q 16.015625 51.171875 16.015625 36.375 
Q 16.015625 21.625 22.71875 14.15625 
Q 29.4375 6.6875 42.828125 6.6875 
Q 48.046875 6.6875 52.140625 7.59375 
Q 56.25 8.5 59.515625 10.40625 
z
" id="DejaVuSans-71"/>
      <path d="M 56.203125 29.59375 
L 56.203125 25.203125 
L 14.890625 25.203125 
Q 15.484375 15.921875 20.484375 11.0625 
Q 25.484375 6.203125 34.421875 6.203125 
Q 39.59375 6.203125 44.453125 7.46875 
Q 49.3125 8.734375 54.109375 11.28125 
L 54.109375 2.78125 
Q 49.265625 0.734375 44.1875 -0.34375 
Q 39.109375 -1.421875 33.890625 -1.421875 
Q 20.796875 -1.421875 13.15625 6.1875 
Q 5.515625 13.8125 5.515625 26.8125 
Q 5.515625 40.234375 12.765625 48.109375 
Q 20.015625 56 32.328125 56 
Q 43.359375 56 49.78125 48.890625 
Q 56.203125 41.796875 56.203125 29.59375 
z
M 47.21875 32.234375 
Q 47.125 39.59375 43.09375 43.984375 
Q 39.0625 48.390625 32.421875 48.390625 
Q 24.90625 48.390625 20.390625 44.140625 
Q 15.875 39.890625 15.1875 32.171875 
z
" id="DejaVuSans-101"/>
      <path d="M 54.890625 33.015625 
L 54.890625 0 
L 45.90625 0 
L 45.90625 32.71875 
Q 45.90625 40.484375 42.875 44.328125 
Q 39.84375 48.1875 33.796875 48.1875 
Q 26.515625 48.1875 22.3125 43.546875 
Q 18.109375 38.921875 18.109375 30.90625 
L 18.109375 0 
L 9.078125 0 
L 9.078125 54.6875 
L 18.109375 54.6875 
L 18.109375 46.1875 
Q 21.34375 51.125 25.703125 53.5625 
Q 30.078125 56 35.796875 56 
Q 45.21875 56 50.046875 50.171875 
Q 54.890625 44.34375 54.890625 33.015625 
z
" id="DejaVuSans-110"/>
      <path d="M 41.109375 46.296875 
Q 39.59375 47.171875 37.8125 47.578125 
Q 36.03125 48 33.890625 48 
Q 26.265625 48 22.1875 43.046875 
Q 18.109375 38.09375 18.109375 28.8125 
L 18.109375 0 
L 9.078125 0 
L 9.078125 54.6875 
L 18.109375 54.6875 
L 18.109375 46.1875 
Q 20.953125 51.171875 25.484375 53.578125 
Q 30.03125 56 36.53125 56 
Q 37.453125 56 38.578125 55.875 
Q 39.703125 55.765625 41.0625 55.515625 
z
" id="DejaVuSans-114"/>
      <path d="M 34.28125 27.484375 
Q 23.390625 27.484375 19.1875 25 
Q 14.984375 22.515625 14.984375 16.5 
Q 14.984375 11.71875 18.140625 8.90625 
Q 21.296875 6.109375 26.703125 6.109375 
Q 34.1875 6.109375 38.703125 11.40625 
Q 43.21875 16.703125 43.21875 25.484375 
L 43.21875 27.484375 
z
M 52.203125 31.203125 
L 52.203125 0 
L 43.21875 0 
L 43.21875 8.296875 
Q 40.140625 3.328125 35.546875 0.953125 
Q 30.953125 -1.421875 24.3125 -1.421875 
Q 15.921875 -1.421875 10.953125 3.296875 
Q 6 8.015625 6 15.921875 
Q 6 25.140625 12.171875 29.828125 
Q 18.359375 34.515625 30.609375 34.515625 
L 43.21875 34.515625 
L 43.21875 35.40625 
Q 43.21875 41.609375 39.140625 45 
Q 35.0625 48.390625 27.6875 48.390625 
Q 23 48.390625 18.546875 47.265625 
Q 14.109375 46.140625 10.015625 43.890625 
L 10.015625 52.203125 
Q 14.9375 54.109375 19.578125 55.046875 
Q 24.21875 56 28.609375 56 
Q 40.484375 56 46.34375 49.84375 
Q 52.203125 43.703125 52.203125 31.203125 
z
" id="DejaVuSans-97"/>
      <path d="M 18.3125 70.21875 
L 18.3125 54.6875 
L 36.8125 54.6875 
L 36.8125 47.703125 
L 18.3125 47.703125 
L 18.3125 18.015625 
Q 18.3125 11.328125 20.140625 9.421875 
Q 21.96875 7.515625 27.59375 7.515625 
L 36.8125 7.515625 
L 36.8125 0 
L 27.59375 0 
Q 17.1875 0 13.234375 3.875 
Q 9.28125 7.765625 9.28125 18.015625 
L 9.28125 47.703125 
L 2.6875 47.703125 
L 2.6875 54.6875 
L 9.28125 54.6875 
L 9.28125 70.21875 
z
" id="DejaVuSans-116"/>
      <path d="M 9.421875 54.6875 
L 18.40625 54.6875 
L 18.40625 0 
L 9.421875 0 
z
M 9.421875 75.984375 
L 18.40625 75.984375 
L 18.40625 64.59375 
L 9.421875 64.59375 
z
" id="DejaVuSans-105"/>
      <path d="M 30.609375 48.390625 
Q 23.390625 48.390625 19.1875 42.75 
Q 14.984375 37.109375 14.984375 27.296875 
Q 14.984375 17.484375 19.15625 11.84375 
Q 23.34375 6.203125 30.609375 6.203125 
Q 37.796875 6.203125 41.984375 11.859375 
Q 46.1875 17.53125 46.1875 27.296875 
Q 46.1875 37.015625 41.984375 42.703125 
Q 37.796875 48.390625 30.609375 48.390625 
z
M 30.609375 56 
Q 42.328125 56 49.015625 48.375 
Q 55.71875 40.765625 55.71875 27.296875 
Q 55.71875 13.875 49.015625 6.21875 
Q 42.328125 -1.421875 30.609375 -1.421875 
Q 18.84375 -1.421875 12.171875 6.21875 
Q 5.515625 13.875 5.515625 27.296875 
Q 5.515625 40.765625 12.171875 48.375 
Q 18.84375 56 30.609375 56 
z
" id="DejaVuSans-111"/>
     </defs>
     <g transform="translate(199.649844 301.588562)scale(0.1 -0.1)">
      <use xlink:href="#DejaVuSans-71"/>
      <use x="77.490234" xlink:href="#DejaVuSans-101"/>
      <use x="139.013672" xlink:href="#DejaVuSans-110"/>
      <use x="202.392578" xlink:href="#DejaVuSans-101"/>
      <use x="263.916016" xlink:href="#DejaVuSans-114"/>
      <use x="305.029297" xlink:href="#DejaVuSans-97"/>
      <use x="366.308594" xlink:href="#DejaVuSans-116"/>
      <use x="405.517578" xlink:href="#DejaVuSans-105"/>
      <use x="433.300781" xlink:href="#DejaVuSans-111"/>
      <use x="494.482422" xlink:href="#DejaVuSans-110"/>
     </g>
    </g>
   </g>
   <g id="matplotlib.axis_2">
    <g id="ytick_1">
     <g id="line2d_7">
      <defs>
       <path d="M 0 0 
L -3.5 0 
" id="md3c6ffd826" style="stroke:#000000;stroke-width:0.8;"/>
      </defs>
      <g>
       <use style="stroke:#000000;stroke-width:0.8;" x="48.982813" xlink:href="#md3c6ffd826" y="233.717611"/>
      </g>
     </g>
     <g id="text_8">
      <!-- −25 -->
      <defs>
       <path d="M 10.59375 35.5 
L 73.1875 35.5 
L 73.1875 27.203125 
L 10.59375 27.203125 
z
" id="DejaVuSans-8722"/>
       <path d="M 10.796875 72.90625 
L 49.515625 72.90625 
L 49.515625 64.59375 
L 19.828125 64.59375 
L 19.828125 46.734375 
Q 21.96875 47.46875 24.109375 47.828125 
Q 26.265625 48.1875 28.421875 48.1875 
Q 40.625 48.1875 47.75 41.5 
Q 54.890625 34.8125 54.890625 23.390625 
Q 54.890625 11.625 47.5625 5.09375 
Q 40.234375 -1.421875 26.90625 -1.421875 
Q 22.3125 -1.421875 17.546875 -0.640625 
Q 12.796875 0.140625 7.71875 1.703125 
L 7.71875 11.625 
Q 12.109375 9.234375 16.796875 8.0625 
Q 21.484375 6.890625 26.703125 6.890625 
Q 35.15625 6.890625 40.078125 11.328125 
Q 45.015625 15.765625 45.015625 23.390625 
Q 45.015625 31 40.078125 35.4375 
Q 35.15625 39.890625 26.703125 39.890625 
Q 22.75 39.890625 18.8125 39.015625 
Q 14.890625 38.140625 10.796875 36.28125 
z
" id="DejaVuSans-53"/>
      </defs>
      <g transform="translate(20.878125 237.51683)scale(0.1 -0.1)">
       <use xlink:href="#DejaVuSans-8722"/>
       <use x="83.789062" xlink:href="#DejaVuSans-50"/>
       <use x="147.412109" xlink:href="#DejaVuSans-53"/>
      </g>
     </g>
    </g>
    <g id="ytick_2">
     <g id="line2d_8">
      <g>
       <use style="stroke:#000000;stroke-width:0.8;" x="48.982813" xlink:href="#md3c6ffd826" y="189.87787"/>
      </g>
     </g>
     <g id="text_9">
      <!-- −20 -->
      <g transform="translate(20.878125 193.677089)scale(0.1 -0.1)">
       <use xlink:href="#DejaVuSans-8722"/>
       <use x="83.789062" xlink:href="#DejaVuSans-50"/>
       <use x="147.412109" xlink:href="#DejaVuSans-48"/>
      </g>
     </g>
    </g>
    <g id="ytick_3">
     <g id="line2d_9">
      <g>
       <use style="stroke:#000000;stroke-width:0.8;" x="48.982813" xlink:href="#md3c6ffd826" y="146.038129"/>
      </g>
     </g>
     <g id="text_10">
      <!-- −15 -->
      <g transform="translate(20.878125 149.837348)scale(0.1 -0.1)">
       <use xlink:href="#DejaVuSans-8722"/>
       <use x="83.789062" xlink:href="#DejaVuSans-49"/>
       <use x="147.412109" xlink:href="#DejaVuSans-53"/>
      </g>
     </g>
    </g>
    <g id="ytick_4">
     <g id="line2d_10">
      <g>
       <use style="stroke:#000000;stroke-width:0.8;" x="48.982813" xlink:href="#md3c6ffd826" y="102.198389"/>
      </g>
     </g>
     <g id="text_11">
      <!-- −10 -->
      <g transform="translate(20.878125 105.997607)scale(0.1 -0.1)">
       <use xlink:href="#DejaVuSans-8722"/>
       <use x="83.789062" xlink:href="#DejaVuSans-49"/>
       <use x="147.412109" xlink:href="#DejaVuSans-48"/>
      </g>
     </g>
    </g>
    <g id="ytick_5">
     <g id="line2d_11">
      <g>
       <use style="stroke:#000000;stroke-width:0.8;" x="48.982813" xlink:href="#md3c6ffd826" y="58.358648"/>
      </g>
     </g>
     <g id="text_12">
      <!-- −5 -->
      <g transform="translate(27.240625 62.157867)scale(0.1 -0.1)">
       <use xlink:href="#DejaVuSans-8722"/>
       <use x="83.789062" xlink:href="#DejaVuSans-53"/>
      </g>
     </g>
    </g>
    <g id="ytick_6">
     <g id="line2d_12">
      <g>
       <use style="stroke:#000000;stroke-width:0.8;" x="48.982813" xlink:href="#md3c6ffd826" y="14.518907"/>
      </g>
     </g>
     <g id="text_13">
      <!-- 0 -->
      <g transform="translate(35.620313 18.318126)scale(0.1 -0.1)">
       <use xlink:href="#DejaVuSans-48"/>
      </g>
     </g>
    </g>
    <g id="text_14">
     <!-- Fitness -->
     <defs>
      <path d="M 9.8125 72.90625 
L 51.703125 72.90625 
L 51.703125 64.59375 
L 19.671875 64.59375 
L 19.671875 43.109375 
L 48.578125 43.109375 
L 48.578125 34.8125 
L 19.671875 34.8125 
L 19.671875 0 
L 9.8125 0 
z
" id="DejaVuSans-70"/>
      <path d="M 44.28125 53.078125 
L 44.28125 44.578125 
Q 40.484375 46.53125 36.375 47.5 
Q 32.28125 48.484375 27.875 48.484375 
Q 21.1875 48.484375 17.84375 46.4375 
Q 14.5 44.390625 14.5 40.28125 
Q 14.5 37.15625 16.890625 35.375 
Q 19.28125 33.59375 26.515625 31.984375 
L 29.59375 31.296875 
Q 39.15625 29.25 43.1875 25.515625 
Q 47.21875 21.78125 47.21875 15.09375 
Q 47.21875 7.46875 41.1875 3.015625 
Q 35.15625 -1.421875 24.609375 -1.421875 
Q 20.21875 -1.421875 15.453125 -0.5625 
Q 10.6875 0.296875 5.421875 2 
L 5.421875 11.28125 
Q 10.40625 8.6875 15.234375 7.390625 
Q 20.0625 6.109375 24.8125 6.109375 
Q 31.15625 6.109375 34.5625 8.28125 
Q 37.984375 10.453125 37.984375 14.40625 
Q 37.984375 18.0625 35.515625 20.015625 
Q 33.0625 21.96875 24.703125 23.78125 
L 21.578125 24.515625 
Q 13.234375 26.265625 9.515625 29.90625 
Q 5.8125 33.546875 5.8125 39.890625 
Q 5.8125 47.609375 11.28125 51.796875 
Q 16.75 56 26.8125 56 
Q 31.78125 56 36.171875 55.265625 
Q 40.578125 54.546875 44.28125 53.078125 
z
" id="DejaVuSans-115"/>
     </defs>
     <g transform="translate(14.798438 157.930219)rotate(-90)scale(0.1 -0.1)">
      <use xlink:href="#DejaVuSans-70"/>
      <use x="57.410156" xlink:href="#DejaVuSans-105"/>
      <use x="85.193359" xlink:href="#DejaVuSans-116"/>
      <use x="124.402344" xlink:href="#DejaVuSans-110"/>
      <use x="187.78125" xlink:href="#DejaVuSans-101"/>
      <use x="249.304688" xlink:href="#DejaVuSans-115"/>
      <use x="301.404297" xlink:href="#DejaVuSans-115"/>
     </g>
    </g>
   </g>
   <g id="line2d_13">
    <path clip-path="url(#p20b3f67030)" d="M 65.21554 33.328375 
L 65.540194 39.430174 
L 65.864849 29.880014 
L 66.189503 39.641659 
L 66.514158 39.045055 
L 66.838813 37.704425 
L 67.163467 45.353997 
L 67.488122 32.514456 
L 67.812776 59.765445 
L 68.137431 57.818645 
L 68.462085 38.69904 
L 68.78674 62.90106 
L 69.111394 54.379875 
L 69.436049 57.514222 
L 70.085358 36.038491 
L 71.059322 92.030278 
L 71.383976 50.690244 
L 71.708631 50.690244 
L 72.033285 56.346542 
L 72.35794 84.727127 
L 72.682594 60.691887 
L 73.007249 68.075898 
L 73.331903 87.263729 
L 73.656558 59.201558 
L 73.981213 51.479467 
L 74.305867 99.524701 
L 74.955176 71.445228 
L 75.279831 117.272505 
L 75.604485 82.550387 
L 75.92914 77.81792 
L 76.253794 70.13707 
L 76.578449 56.492285 
L 76.903103 76.577974 
L 77.227758 50.618019 
L 77.552413 65.902687 
L 77.877067 73.28108 
L 78.201722 77.774305 
L 78.526376 56.882506 
L 78.851031 56.882506 
L 79.175685 67.236008 
L 79.50034 82.368321 
L 79.824994 68.45293 
L 80.149649 45.41906 
L 80.474303 68.119812 
L 80.798958 49.660486 
L 81.123613 39.570116 
L 81.448267 85.429509 
L 81.772922 69.536824 
L 82.097576 77.235594 
L 82.422231 38.545221 
L 83.396194 81.857745 
L 84.045503 126.256921 
L 84.370158 55.120463 
L 84.694813 75.842964 
L 85.019467 79.204488 
L 85.668776 110.23063 
L 85.993431 99.666997 
L 86.64274 155.220737 
L 86.967394 133.120497 
L 87.292049 125.238829 
L 87.616703 100.960032 
L 87.941358 168.25464 
L 88.266013 99.865827 
L 88.590667 81.726683 
L 88.915322 81.726683 
L 89.239976 76.530576 
L 89.564631 102.93878 
L 89.889285 98.560132 
L 90.21394 116.096836 
L 90.538594 126.907934 
L 90.863249 131.155675 
L 91.187903 122.648713 
L 91.512558 79.773193 
L 91.837213 119.104225 
L 92.161867 57.570231 
L 92.486522 100.225046 
L 92.811176 39.457746 
L 93.135831 122.140141 
L 93.460485 109.870306 
L 93.78514 109.870306 
L 94.109794 116.303008 
L 94.434449 79.189454 
L 94.759103 96.595563 
L 95.083758 75.52918 
L 95.408413 181.310595 
L 95.733067 51.797134 
L 96.057722 107.177291 
L 96.382376 196.7648 
L 97.031685 113.797897 
L 97.680994 145.426937 
L 98.005649 106.631403 
L 98.330303 133.389212 
L 98.979613 63.995941 
L 99.304267 82.839817 
L 99.628922 112.594464 
L 99.953576 83.174219 
L 100.278231 79.619604 
L 100.602885 108.28923 
L 100.92754 66.609015 
L 101.252194 112.973783 
L 101.576849 112.973783 
L 101.901503 92.818604 
L 102.226158 101.48961 
L 102.550813 131.945696 
L 102.875467 111.207041 
L 103.200122 119.49539 
L 103.524776 114.401548 
L 104.174085 128.618836 
L 104.49874 132.692609 
L 104.823394 96.286034 
L 105.148049 137.733213 
L 105.472703 137.893641 
L 105.797358 136.824272 
L 106.122013 117.678572 
L 106.446667 137.29834 
L 106.771322 110.09884 
L 107.095976 110.09884 
L 107.420631 99.966399 
L 107.745285 84.331823 
L 108.06994 78.268549 
L 108.394594 169.798555 
L 108.719249 176.772741 
L 109.368558 109.95729 
L 109.693213 109.95729 
L 110.017867 126.632873 
L 110.342522 170.702261 
L 110.991831 90.892125 
L 111.316485 135.724381 
L 111.64114 135.724381 
L 111.965794 166.835388 
L 112.290449 128.264721 
L 112.615103 128.264721 
L 112.939758 138.510878 
L 113.589067 112.178117 
L 113.913722 151.18323 
L 114.238376 239.646859 
L 114.563031 183.50336 
L 114.887685 200.202745 
L 115.21234 103.202016 
L 115.536994 185.12222 
L 115.861649 169.072942 
L 116.186303 173.480634 
L 116.510958 166.387945 
L 116.835613 82.553297 
L 117.484922 162.72608 
L 117.809576 114.984079 
L 118.134231 113.051299 
L 118.458885 60.819989 
L 118.78354 119.603812 
L 119.108194 76.53904 
L 119.432849 67.422984 
L 119.757503 83.600139 
L 120.082158 71.60056 
L 120.406813 110.172665 
L 120.731467 73.337096 
L 121.056122 87.921732 
L 121.380776 128.55344 
L 121.705431 71.321277 
L 122.030085 123.385209 
L 123.004049 62.359868 
L 123.328703 61.131952 
L 123.653358 58.505301 
L 123.978013 48.858483 
L 124.302667 70.546898 
L 124.951976 38.497202 
L 125.276631 38.497202 
L 125.601285 58.860024 
L 125.92594 113.008369 
L 126.250594 107.786362 
L 126.575249 94.259227 
L 126.899903 89.780725 
L 127.224558 94.53425 
L 127.549213 144.009514 
L 127.873867 134.804172 
L 128.523176 142.726057 
L 128.847831 121.830312 
L 129.172485 66.445552 
L 129.49714 160.314365 
L 129.821794 126.642864 
L 130.146449 126.642864 
L 130.471103 120.036189 
L 130.795758 104.793698 
L 131.120413 129.457581 
L 131.445067 138.136055 
L 131.769722 99.768391 
L 132.419031 134.638203 
L 132.743685 117.743002 
L 133.06834 54.434718 
L 133.392994 98.90386 
L 133.717649 64.077119 
L 134.042303 97.755981 
L 134.366958 104.914644 
L 134.691613 89.629388 
L 135.016267 105.134899 
L 135.340922 53.135791 
L 135.665576 66.233087 
L 135.990231 98.669612 
L 136.314885 86.535107 
L 136.63954 96.898081 
L 136.964194 96.898081 
L 137.288849 84.900806 
L 137.613503 78.809701 
L 137.938158 96.795781 
L 138.262812 83.342343 
L 138.587467 90.16144 
L 138.912122 99.390928 
L 139.236776 95.749182 
L 139.561431 95.864475 
L 139.886085 95.04437 
L 140.21074 98.209722 
L 140.535394 56.757529 
L 140.860049 85.28197 
L 141.184703 53.130911 
L 141.509358 63.919197 
L 141.834013 63.919197 
L 142.158667 69.373745 
L 142.483322 76.972808 
L 142.807976 64.437647 
L 143.132631 74.293005 
L 143.78194 36.412898 
L 144.106594 64.198999 
L 144.431249 61.087684 
L 144.755903 59.830287 
L 145.405213 50.465048 
L 145.729867 64.213421 
L 146.054522 62.595752 
L 146.379176 50.629598 
L 146.703831 50.629598 
L 147.028485 47.186753 
L 147.35314 77.914385 
L 147.677794 70.753698 
L 148.002449 78.005276 
L 148.327103 55.219598 
L 148.651758 50.065427 
L 148.976413 80.147348 
L 149.301067 67.832326 
L 149.625722 61.685042 
L 149.950376 49.74168 
L 150.275031 57.504978 
L 150.599685 74.854709 
L 150.92434 70.064598 
L 151.248994 45.084552 
L 151.573649 81.450142 
L 151.898303 74.473179 
L 152.222958 90.11156 
L 152.547613 65.826825 
L 152.872267 93.557973 
L 153.196922 61.734643 
L 153.846231 101.840738 
L 154.170885 53.898476 
L 154.49554 53.898476 
L 154.820194 60.22845 
L 155.144849 56.095449 
L 155.469503 75.193581 
L 155.794158 76.382993 
L 156.118813 60.18621 
L 156.443467 63.277335 
L 156.768122 51.296452 
L 157.092776 31.37604 
L 157.417431 47.646727 
L 157.742085 47.097948 
L 158.06674 38.129642 
L 158.391394 64.77513 
L 158.716049 72.30527 
L 159.040703 52.21983 
L 159.365358 127.575203 
L 159.690013 83.559737 
L 160.014667 83.262083 
L 160.339322 95.624159 
L 160.663976 82.525333 
L 160.988631 59.625571 
L 161.63794 89.005 
L 161.962594 74.712415 
L 162.287249 66.461234 
L 162.611903 39.324677 
L 162.936558 85.240562 
L 163.261212 100.851329 
L 163.585867 81.361552 
L 163.910522 79.196228 
L 164.235176 75.619244 
L 164.559831 100.89255 
L 164.884485 98.920788 
L 165.20914 123.050552 
L 165.533794 51.762923 
L 165.858449 54.187851 
L 166.183103 54.187851 
L 166.507758 30.610264 
L 166.832413 19.296 
L 167.157067 39.500476 
L 167.481722 49.74142 
L 167.806376 41.505234 
L 168.131031 52.789333 
L 168.455685 51.313044 
L 168.78034 68.681272 
L 169.104994 44.906651 
L 169.429649 77.20792 
L 169.754303 64.801085 
L 170.078958 69.852332 
L 170.403613 45.309947 
L 170.728267 58.602546 
L 171.052922 57.778527 
L 171.377576 79.400913 
L 171.702231 66.467223 
L 172.026885 94.469967 
L 172.35154 110.638557 
L 172.676194 103.336642 
L 173.000849 70.64167 
L 173.325503 72.380085 
L 173.650158 71.784385 
L 173.974813 94.638741 
L 174.299467 87.414956 
L 174.948776 102.179571 
L 175.273431 53.456635 
L 175.598085 88.081072 
L 175.92274 29.897495 
L 176.247394 66.87658 
L 176.572049 74.820731 
L 176.896703 87.712287 
L 177.221358 56.48979 
L 177.546013 83.915901 
L 177.870667 48.43069 
L 178.519976 73.730598 
L 178.844631 73.730598 
L 179.169285 71.828407 
L 179.49394 76.967585 
L 179.818594 91.027061 
L 180.143249 96.710403 
L 180.467903 41.254552 
L 180.792558 68.965281 
L 181.117213 85.201543 
L 181.441867 66.159291 
L 181.766522 83.554306 
L 182.091176 120.292055 
L 182.415831 114.772947 
L 182.740485 125.141977 
L 183.06514 63.031907 
L 183.389794 100.03107 
L 183.714449 122.805403 
L 184.363758 44.83348 
L 184.688413 79.063268 
L 185.013067 73.126779 
L 185.337722 82.069478 
L 185.662376 60.527973 
L 185.987031 54.347234 
L 186.311685 41.085065 
L 186.63634 77.152653 
L 186.960994 65.095667 
L 187.285649 60.879613 
L 187.610303 43.420473 
L 187.934958 50.407353 
L 188.259613 49.581752 
L 188.908922 54.507951 
L 189.233576 59.019243 
L 189.558231 80.07023 
L 189.882885 46.116351 
L 190.20754 44.127603 
L 190.532194 51.060301 
L 190.856849 33.515988 
L 191.506158 60.392936 
L 191.830813 60.392936 
L 192.155467 59.735265 
L 192.480122 105.120521 
L 192.804776 99.84913 
L 193.129431 70.731478 
L 193.454085 61.543883 
L 193.77874 81.389001 
L 194.103394 91.619806 
L 194.428049 68.532634 
L 194.752703 76.704899 
L 195.077358 94.099447 
L 195.402013 80.294977 
L 195.726667 74.759285 
L 196.051322 43.637836 
L 196.375976 55.796091 
L 196.700631 48.606463 
L 197.025285 55.355529 
L 197.34994 64.766994 
L 197.674594 52.16551 
L 198.323903 87.97302 
L 198.648558 65.022748 
L 198.973213 75.490291 
L 199.297867 68.557483 
L 199.947176 40.326421 
L 200.596485 78.272583 
L 200.92114 84.39827 
L 201.245794 96.307705 
L 201.570449 77.56821 
L 201.895103 114.129255 
L 202.219758 93.294331 
L 202.544413 93.294331 
L 202.869067 87.728917 
L 203.193722 68.729571 
L 203.518376 98.374318 
L 203.843031 88.202177 
L 204.167685 81.807976 
L 204.49234 64.727691 
L 204.816994 83.59748 
L 205.141649 61.892503 
L 205.466303 79.692545 
L 205.790958 74.397177 
L 206.440267 44.432381 
L 206.764922 67.875095 
L 207.089576 49.160831 
L 207.414231 71.103845 
L 207.738885 40.017019 
L 208.06354 51.88294 
L 208.388194 59.54858 
L 209.037503 44.131924 
L 209.686813 76.310476 
L 210.011467 74.533395 
L 210.336122 33.875988 
L 210.660776 44.310474 
L 210.985431 50.958967 
L 211.310085 84.050286 
L 211.959394 74.440884 
L 212.284049 65.91803 
L 212.608703 78.500294 
L 212.933358 115.003771 
L 213.258013 105.169404 
L 213.582667 72.312029 
L 213.907322 65.001149 
L 214.231976 98.011752 
L 214.556631 89.581539 
L 214.881285 70.274255 
L 215.20594 74.307083 
L 215.530594 74.307083 
L 215.855249 65.906321 
L 216.179903 119.988525 
L 216.829213 56.85946 
L 217.153867 55.271642 
L 217.478522 55.271642 
L 217.803176 72.573036 
L 218.127831 103.068862 
L 218.452485 77.297719 
L 218.77714 95.09693 
L 219.101794 95.09693 
L 219.426449 93.928612 
L 219.751103 104.785778 
L 220.075758 93.03333 
L 220.400413 97.968646 
L 220.725067 56.249703 
L 221.049722 45.08719 
L 221.374376 53.904652 
L 221.699031 53.904652 
L 222.023685 84.62761 
L 222.34834 60.836969 
L 222.997649 45.060166 
L 223.646958 80.549803 
L 223.971613 74.127938 
L 224.296267 95.82613 
L 224.620922 71.860849 
L 224.945576 71.860849 
L 225.270231 79.549698 
L 225.594885 80.164843 
L 225.91954 60.730528 
L 226.568849 85.827958 
L 226.893503 86.537172 
L 227.218158 38.177361 
L 227.542813 55.998629 
L 227.867467 91.474235 
L 228.192122 54.625016 
L 228.516776 41.101373 
L 228.841431 72.341545 
L 229.166085 72.341545 
L 229.49074 96.794771 
L 229.815394 85.014836 
L 230.140049 84.021531 
L 230.464703 107.625754 
L 230.789358 76.370232 
L 231.114013 76.370232 
L 231.438667 99.304968 
L 231.763322 103.850583 
L 232.087976 113.862193 
L 232.412631 98.513975 
L 232.737285 111.321118 
L 233.06194 78.655416 
L 233.386594 116.784302 
L 233.711249 178.802315 
L 234.035903 102.660767 
L 234.360558 111.422286 
L 234.685213 108.827375 
L 235.009867 137.02725 
L 235.334522 126.673217 
L 235.659176 131.956381 
L 235.983831 160.768997 
L 236.308485 104.521907 
L 236.63314 72.622918 
L 236.957794 72.622918 
L 237.282449 35.181284 
L 237.931758 76.702081 
L 238.256413 69.060547 
L 238.581067 143.418311 
L 238.905722 71.671331 
L 239.230376 77.843223 
L 239.555031 88.290655 
L 239.879685 92.780008 
L 240.20434 114.680153 
L 240.528994 93.26333 
L 240.853649 101.441174 
L 241.178303 127.086043 
L 241.502958 131.091425 
L 241.827613 109.609652 
L 242.152267 97.784111 
L 242.476922 153.611852 
L 242.801576 150.106109 
L 243.126231 114.512959 
L 243.450885 145.998535 
L 243.77554 133.503496 
L 244.100194 171.167477 
L 244.749503 114.242165 
L 245.074158 130.733193 
L 245.398813 153.831651 
L 245.723467 164.850565 
L 246.372776 74.552872 
L 246.697431 74.552872 
L 247.022085 93.676342 
L 247.34674 94.542867 
L 247.671394 49.764557 
L 247.996049 91.177576 
L 248.320703 91.511047 
L 248.645358 110.337027 
L 248.970013 150.278209 
L 249.294667 116.299857 
L 249.619322 120.509445 
L 249.943976 101.502992 
L 250.268631 129.655305 
L 250.593285 95.618703 
L 250.91794 139.435587 
L 251.242594 81.776954 
L 251.567249 81.436838 
L 251.891903 67.623065 
L 252.216558 97.610067 
L 252.541213 72.97945 
L 252.865867 97.281743 
L 253.190522 53.793348 
L 253.515176 79.667866 
L 253.839831 71.159326 
L 254.164485 73.585762 
L 255.138449 61.138506 
L 255.463103 61.138506 
L 255.787758 40.795171 
L 256.112413 66.460118 
L 256.437067 74.230107 
L 256.761722 98.795328 
L 257.086376 75.178555 
L 257.411031 68.566503 
L 257.735685 70.105413 
L 258.06034 68.641838 
L 258.384994 77.235175 
L 258.709649 68.913517 
L 259.358958 79.120393 
L 259.683612 94.122436 
L 260.332922 31.449118 
L 260.982231 96.487113 
L 261.306885 77.419807 
L 261.63154 76.904083 
L 262.280849 52.444274 
L 262.605503 62.437354 
L 262.930158 49.749203 
L 263.254813 79.128429 
L 263.579467 61.348696 
L 263.904122 80.50196 
L 264.228776 88.437992 
L 264.878085 63.501888 
L 265.20274 59.83441 
L 265.527394 108.65903 
L 265.852049 96.778134 
L 266.176703 142.792164 
L 266.501358 110.709257 
L 266.826013 175.589394 
L 267.150667 117.037836 
L 267.475322 130.287991 
L 267.799976 96.428997 
L 268.124631 104.575748 
L 268.449285 108.083776 
L 268.77394 104.031843 
L 269.098594 101.561541 
L 269.423249 107.161017 
L 269.747903 108.63522 
L 270.072558 51.342488 
L 270.397213 99.923609 
L 270.721867 99.923609 
L 271.046522 137.997132 
L 271.371176 60.969784 
L 271.695831 56.213104 
L 272.020485 75.879144 
L 272.34514 137.186497 
L 272.669794 160.917474 
L 272.994449 168.894017 
L 273.319103 114.257453 
L 273.643758 163.443739 
L 273.968412 173.65349 
L 274.293067 107.066834 
L 274.617722 169.594994 
L 274.942376 146.312122 
L 275.267031 156.477478 
L 275.591685 95.104103 
L 275.91634 89.012091 
L 276.240994 124.714501 
L 276.565649 110.490238 
L 276.890303 173.184664 
L 277.214958 81.892531 
L 277.539613 107.605531 
L 277.864267 97.934103 
L 278.188922 112.58081 
L 278.513576 139.702546 
L 278.838231 85.136471 
L 279.162885 111.550147 
L 279.48754 107.941225 
L 279.812194 86.230079 
L 280.136849 114.10647 
L 280.461503 79.951877 
L 280.786158 148.330907 
L 281.110813 130.017576 
L 281.435467 150.130849 
L 281.760122 145.959127 
L 282.084776 133.442373 
L 282.409431 115.525222 
L 282.734085 109.901939 
L 283.05874 122.027938 
L 283.383394 122.027938 
L 283.708049 176.652725 
L 284.032703 162.838385 
L 284.357358 172.432029 
L 284.682013 129.180686 
L 285.006667 159.782919 
L 285.331322 224.718342 
L 285.655976 171.618458 
L 285.980631 165.369884 
L 286.305285 208.081432 
L 286.62994 191.923109 
L 286.954594 214.813178 
L 287.279249 155.870604 
L 287.603903 52.324781 
L 287.928558 118.090298 
L 288.253213 118.090298 
L 288.577867 93.215337 
L 288.902522 131.908983 
L 289.551831 154.819462 
L 289.876485 155.879834 
L 290.20114 99.333181 
L 290.525794 76.632612 
L 290.850449 74.294037 
L 291.175103 65.392814 
L 291.499758 76.225867 
L 291.824412 71.582372 
L 292.149067 109.513967 
L 292.473722 91.198863 
L 292.798376 86.327831 
L 293.123031 92.854387 
L 293.447685 53.738764 
L 293.77234 79.846416 
L 294.096994 74.853902 
L 294.421649 129.349198 
L 294.746303 130.864653 
L 295.070958 90.332781 
L 295.395613 108.931802 
L 295.720267 120.216189 
L 296.044922 141.454411 
L 296.369576 96.622386 
L 296.694231 95.682388 
L 297.018885 89.588758 
L 297.34354 74.216279 
L 297.668194 102.634729 
L 297.992849 112.359968 
L 298.642158 51.123871 
L 298.966813 101.201053 
L 299.291467 73.354886 
L 299.616122 81.185804 
L 299.940776 125.364689 
L 300.590085 92.513714 
L 300.91474 90.726141 
L 301.239394 74.484442 
L 301.564049 70.092371 
L 301.888703 120.654324 
L 302.213358 108.95424 
L 302.538013 90.638067 
L 302.862667 87.963558 
L 303.187322 55.129381 
L 303.511976 118.079661 
L 303.836631 103.93379 
L 304.161285 125.92923 
L 304.48594 104.267958 
L 304.810594 105.701448 
L 305.135249 116.190995 
L 305.459903 105.8574 
L 305.784558 101.448331 
L 306.109213 91.48654 
L 306.433867 73.272518 
L 306.758522 97.798891 
L 307.083176 64.408571 
L 307.407831 94.794778 
L 307.732485 85.573553 
L 308.05714 85.397778 
L 308.381794 60.572244 
L 308.706449 52.327559 
L 309.031103 63.606863 
L 309.355758 44.902013 
L 309.680412 48.863368 
L 310.005067 37.343342 
L 310.329722 39.713556 
L 310.654376 61.179624 
L 310.979031 44.383541 
L 311.303685 61.951942 
L 311.62834 58.595102 
L 311.952994 58.810804 
L 312.277649 61.426445 
L 312.602303 51.126711 
L 312.926958 67.629578 
L 313.251613 91.597453 
L 313.576267 75.77566 
L 313.900922 74.586194 
L 314.225576 79.354512 
L 314.550231 90.213975 
L 315.19954 64.56752 
L 315.524194 70.92758 
L 315.848849 61.302169 
L 316.173503 41.120664 
L 316.822813 84.140681 
L 317.147467 47.067806 
L 317.472122 75.571944 
L 317.796776 114.074666 
L 318.121431 93.663781 
L 318.446085 112.457446 
L 319.095394 77.417534 
L 319.420049 77.417534 
L 319.744703 62.450721 
L 320.069358 109.447102 
L 320.394013 74.069263 
L 320.718667 86.159346 
L 321.043322 123.223481 
L 321.367976 108.85705 
L 321.692631 115.205114 
L 322.34194 63.400864 
L 322.666594 79.483766 
L 322.991249 88.932525 
L 323.315903 89.715049 
L 323.640558 111.590553 
L 323.965213 107.631919 
L 324.289867 54.55503 
L 324.614522 36.714561 
L 324.939176 43.155872 
L 325.263831 70.314777 
L 325.588485 111.98762 
L 325.91314 100.465268 
L 326.237794 67.091284 
L 326.562449 110.720782 
L 326.887103 95.275071 
L 327.211758 70.819482 
L 327.861067 70.819482 
L 328.185722 31.442348 
L 328.835031 90.4317 
L 329.48434 111.124637 
L 329.808994 79.283801 
L 330.133649 66.796905 
L 330.782958 77.41019 
L 331.107613 167.963376 
L 331.432267 160.046441 
L 331.756922 124.929962 
L 332.081576 204.616362 
L 332.406231 150.692901 
L 332.730885 187.237448 
L 333.380194 90.488017 
L 333.704849 239.916273 
L 334.029503 130.703712 
L 334.354158 173.226329 
L 334.678813 107.229086 
L 335.003467 130.517064 
L 335.328122 105.552972 
L 336.302085 211.439623 
L 336.62674 194.922689 
L 336.951394 188.503748 
L 337.276049 172.350984 
L 337.600703 172.350984 
L 337.925358 261.216 
L 338.250013 191.125283 
L 338.574667 191.125283 
L 339.223976 133.538512 
L 339.548631 135.451458 
L 339.873285 104.359393 
L 340.19794 187.532679 
L 340.847249 153.857474 
L 341.171903 166.653284 
L 341.496558 185.08813 
L 342.145867 120.194879 
L 342.470522 151.787707 
L 342.795176 125.464953 
L 343.119831 125.464953 
L 343.444485 88.495019 
L 343.76914 119.270022 
L 344.093794 44.847414 
L 344.418449 70.667404 
L 344.743103 74.304845 
L 345.067758 104.913403 
L 345.392412 123.115863 
L 345.717067 176.194379 
L 346.041722 165.266384 
L 346.366376 170.049537 
L 346.691031 138.595624 
L 347.015685 90.346034 
L 347.34034 107.737015 
L 347.664994 87.218512 
L 347.989649 88.511529 
L 348.314303 87.122746 
L 348.638958 88.16074 
L 349.288267 60.616648 
L 349.937576 109.493473 
L 350.262231 80.018914 
L 350.586885 102.042083 
L 350.91154 55.418731 
L 351.236194 98.526699 
L 351.560849 73.631003 
L 351.885503 69.412338 
L 352.210158 66.916253 
L 352.534813 93.108446 
L 352.859467 100.533334 
L 353.184122 131.166916 
L 353.508776 69.824936 
L 353.833431 68.625019 
L 354.158085 60.239123 
L 354.48274 96.539068 
L 354.807394 96.539068 
L 355.132049 62.352455 
L 355.456703 73.628464 
L 355.781358 95.149667 
L 356.106013 39.56772 
L 356.755322 111.582297 
L 357.079976 132.971328 
L 357.404631 108.904475 
L 357.729285 61.22629 
L 358.05394 175.174272 
L 358.378594 163.881179 
L 358.703249 126.78 
L 359.027903 107.243454 
L 359.352558 154.14905 
L 359.677212 99.825101 
L 360.326522 38.620917 
L 360.651176 87.465322 
L 360.975831 89.524799 
L 361.300485 101.967174 
L 361.62514 54.266666 
L 361.949794 56.095454 
L 362.274449 60.988193 
L 362.599103 68.143757 
L 362.923758 68.143757 
L 363.248412 67.784132 
L 363.573067 90.927298 
L 363.897722 68.061704 
L 364.222376 97.927867 
L 364.871685 63.623897 
L 365.520994 93.328309 
L 366.170303 38.432593 
L 366.494958 29.957444 
L 367.144267 67.230175 
L 367.468922 99.95323 
L 367.793576 95.237285 
L 368.118231 86.037972 
L 368.442885 112.857666 
L 368.76754 105.24831 
L 369.092194 105.677979 
L 369.416849 123.218755 
L 369.741503 112.402121 
L 370.066158 133.205218 
L 370.390813 107.53222 
L 370.715467 101.154592 
L 371.040122 184.332218 
L 371.364776 191.198091 
L 372.014085 110.167421 
L 372.663394 107.186566 
L 372.988049 103.387339 
L 373.312703 104.755688 
L 373.637358 97.81144 
L 373.962013 97.794721 
L 374.286667 129.340239 
L 374.611322 129.340239 
L 375.260631 122.37425 
L 375.585285 114.993431 
L 375.90994 94.552726 
L 376.234594 54.636705 
L 376.559249 117.607383 
L 376.883903 114.742458 
L 377.208558 115.94899 
L 377.533212 114.29283 
L 377.857867 99.77489 
L 378.182522 105.227848 
L 378.507176 106.550969 
L 378.831831 76.858912 
L 379.156485 61.440731 
L 379.48114 69.712593 
L 379.805794 50.88622 
L 380.455103 95.604797 
L 380.779758 69.681922 
L 381.104413 89.175262 
L 381.429067 88.578262 
L 381.753722 82.25257 
L 382.078376 110.954868 
L 382.403031 59.880086 
L 382.727685 80.003308 
L 383.05234 57.674962 
L 383.376994 103.658778 
L 383.701649 98.22621 
L 384.026303 106.889574 
L 384.350958 76.809725 
L 384.675613 105.52709 
L 385.000267 101.017727 
L 385.324922 128.207582 
L 385.649576 103.692608 
L 385.974231 161.628598 
L 386.298885 145.899249 
L 386.62354 144.146984 
L 386.948194 93.486184 
L 387.272849 78.457524 
L 387.597503 116.803007 
L 388.246813 88.313242 
L 388.571467 55.044522 
L 388.896122 55.044522 
L 389.220776 77.424736 
L 389.545431 65.881578 
L 389.870085 77.424736 
L 389.870085 77.424736 
" style="fill:none;stroke:#0000ff;stroke-linecap:square;stroke-width:1.5;"/>
   </g>
   <g id="patch_3">
    <path d="M 48.982813 273.312 
L 48.982813 7.2 
" style="fill:none;stroke:#000000;stroke-linecap:square;stroke-linejoin:miter;stroke-width:0.8;"/>
   </g>
   <g id="patch_4">
    <path d="M 406.102813 273.312 
L 406.102813 7.2 
" style="fill:none;stroke:#000000;stroke-linecap:square;stroke-linejoin:miter;stroke-width:0.8;"/>
   </g>
   <g id="patch_5">
    <path d="M 48.982813 273.312 
L 406.102813 273.312 
" style="fill:none;stroke:#000000;stroke-linecap:square;stroke-linejoin:miter;stroke-width:0.8;"/>
   </g>
   <g id="patch_6">
    <path d="M 48.982813 7.2 
L 406.102813 7.2 
" style="fill:none;stroke:#000000;stroke-linecap:square;stroke-linejoin:miter;stroke-width:0.8;"/>
   </g>
   <g id="legend_1">
    <g id="patch_7">
     <path d="M 427.387613 44.55625 
L 507.356363 44.55625 
Q 509.356363 44.55625 509.356363 42.55625 
L 509.356363 14.2 
Q 509.356363 12.2 507.356363 12.2 
L 427.387613 12.2 
Q 425.387613 12.2 425.387613 14.2 
L 425.387613 42.55625 
Q 425.387613 44.55625 427.387613 44.55625 
z
" style="fill:#ffffff;opacity:0.8;stroke:#cccccc;stroke-linejoin:miter;"/>
    </g>
    <g id="text_15">
     <!-- Key: -->
     <defs>
      <path d="M 9.8125 72.90625 
L 19.671875 72.90625 
L 19.671875 42.09375 
L 52.390625 72.90625 
L 65.09375 72.90625 
L 28.90625 38.921875 
L 67.671875 0 
L 54.6875 0 
L 19.671875 35.109375 
L 19.671875 0 
L 9.8125 0 
z
" id="DejaVuSans-75"/>
      <path d="M 32.171875 -5.078125 
Q 28.375 -14.84375 24.75 -17.8125 
Q 21.140625 -20.796875 15.09375 -20.796875 
L 7.90625 -20.796875 
L 7.90625 -13.28125 
L 13.1875 -13.28125 
Q 16.890625 -13.28125 18.9375 -11.515625 
Q 21 -9.765625 23.484375 -3.21875 
L 25.09375 0.875 
L 2.984375 54.6875 
L 12.5 54.6875 
L 29.59375 11.921875 
L 46.6875 54.6875 
L 56.203125 54.6875 
z
" id="DejaVuSans-121"/>
      <path d="M 11.71875 12.40625 
L 22.015625 12.40625 
L 22.015625 0 
L 11.71875 0 
z
M 11.71875 51.703125 
L 22.015625 51.703125 
L 22.015625 39.3125 
L 11.71875 39.3125 
z
" id="DejaVuSans-58"/>
     </defs>
     <g transform="translate(456.382144 23.798437)scale(0.1 -0.1)">
      <use xlink:href="#DejaVuSans-75"/>
      <use x="65.498047" xlink:href="#DejaVuSans-101"/>
      <use x="127.021484" xlink:href="#DejaVuSans-121"/>
      <use x="186.091797" xlink:href="#DejaVuSans-58"/>
     </g>
    </g>
    <g id="line2d_14">
     <path d="M 429.387613 34.976562 
L 449.387613 34.976562 
" style="fill:none;stroke:#0000ff;stroke-linecap:square;stroke-width:1.5;"/>
    </g>
    <g id="line2d_15"/>
    <g id="text_16">
     <!-- k=3, n=5 -->
     <defs>
      <path d="M 9.078125 75.984375 
L 18.109375 75.984375 
L 18.109375 31.109375 
L 44.921875 54.6875 
L 56.390625 54.6875 
L 27.390625 29.109375 
L 57.625 0 
L 45.90625 0 
L 18.109375 26.703125 
L 18.109375 0 
L 9.078125 0 
z
" id="DejaVuSans-107"/>
      <path d="M 10.59375 45.40625 
L 73.1875 45.40625 
L 73.1875 37.203125 
L 10.59375 37.203125 
z
M 10.59375 25.484375 
L 73.1875 25.484375 
L 73.1875 17.1875 
L 10.59375 17.1875 
z
" id="DejaVuSans-61"/>
      <path d="M 40.578125 39.3125 
Q 47.65625 37.796875 51.625 33 
Q 55.609375 28.21875 55.609375 21.1875 
Q 55.609375 10.40625 48.1875 4.484375 
Q 40.765625 -1.421875 27.09375 -1.421875 
Q 22.515625 -1.421875 17.65625 -0.515625 
Q 12.796875 0.390625 7.625 2.203125 
L 7.625 11.71875 
Q 11.71875 9.328125 16.59375 8.109375 
Q 21.484375 6.890625 26.8125 6.890625 
Q 36.078125 6.890625 40.9375 10.546875 
Q 45.796875 14.203125 45.796875 21.1875 
Q 45.796875 27.640625 41.28125 31.265625 
Q 36.765625 34.90625 28.71875 34.90625 
L 20.21875 34.90625 
L 20.21875 43.015625 
L 29.109375 43.015625 
Q 36.375 43.015625 40.234375 45.921875 
Q 44.09375 48.828125 44.09375 54.296875 
Q 44.09375 59.90625 40.109375 62.90625 
Q 36.140625 65.921875 28.71875 65.921875 
Q 24.65625 65.921875 20.015625 65.03125 
Q 15.375 64.15625 9.8125 62.3125 
L 9.8125 71.09375 
Q 15.4375 72.65625 20.34375 73.4375 
Q 25.25 74.21875 29.59375 74.21875 
Q 40.828125 74.21875 47.359375 69.109375 
Q 53.90625 64.015625 53.90625 55.328125 
Q 53.90625 49.265625 50.4375 45.09375 
Q 46.96875 40.921875 40.578125 39.3125 
z
" id="DejaVuSans-51"/>
      <path d="M 11.71875 12.40625 
L 22.015625 12.40625 
L 22.015625 4 
L 14.015625 -11.625 
L 7.71875 -11.625 
L 11.71875 4 
z
" id="DejaVuSans-44"/>
      <path id="DejaVuSans-32"/>
     </defs>
     <g transform="translate(457.387613 38.476562)scale(0.1 -0.1)">
      <use xlink:href="#DejaVuSans-107"/>
      <use x="57.910156" xlink:href="#DejaVuSans-61"/>
      <use x="141.699219" xlink:href="#DejaVuSans-51"/>
      <use x="205.322266" xlink:href="#DejaVuSans-44"/>
      <use x="237.109375" xlink:href="#DejaVuSans-32"/>
      <use x="268.896484" xlink:href="#DejaVuSans-110"/>
      <use x="332.275391" xlink:href="#DejaVuSans-61"/>
      <use x="416.064453" xlink:href="#DejaVuSans-53"/>
     </g>
    </g>
   </g>
  </g>
 </g>
 <defs>
  <clipPath id="p20b3f67030">
   <rect height="266.112" width="357.12" x="48.982813" y="7.2"/>
  </clipPath>
 </defs>
</svg>
